<?xml version="1.0" standalone="no"?>
<!DOCTYPE svg PUBLIC "-//W3C//DTD SVG 20010904//EN"
 "http://www.w3.org/TR/2001/REC-SVG-20010904/DTD/svg10.dtd">
<svg version="1.0" xmlns="http://www.w3.org/2000/svg"
 width="174.000000pt" height="151.000000pt" viewBox="0 0 174.000000 151.000000"
 preserveAspectRatio="xMidYMid meet">
<metadata>
Created by potrace 1.15, written by Peter Selinger 2001-2017
</metadata>
<g transform="translate(0.000000,151.000000) scale(0.100000,-0.100000)"
fill="cyan" stroke="none">
<path d="M838 1500 c-81 -14 -128 -72 -128 -160 0 -66 24 -111 75 -141 32 -19
35 -25 35 -70 l0 -49 -157 0 c-142 0 -164 -3 -214 -23 -30 -13 -72 -36 -91
-51 -51 -38 -106 -122 -120 -182 -12 -51 -13 -52 -55 -57 -55 -6 -115 -46
-150 -99 -25 -37 -28 -50 -28 -128 0 -78 3 -91 28 -128 35 -53 95 -93 150 -99
42 -5 43 -6 55 -57 24 -103 111 -195 221 -236 52 -20 72 -21 425 -18 l371 3
63 34 c92 50 154 128 181 227 11 40 13 42 56 46 57 7 117 46 152 100 25 37 28
50 28 128 0 78 -3 91 -28 128 -35 54 -95 93 -152 100 -43 4 -45 6 -56 46 -27
102 -92 181 -191 233 -51 27 -60 28 -225 31 l-173 4 0 46 c0 44 3 48 37 67 56
30 83 77 83 144 0 111 -82 180 -192 161z m82 -110 c11 -11 20 -33 20 -50 0
-17 -9 -39 -20 -50 -44 -44 -120 -11 -120 52 0 17 7 40 17 50 22 24 77 24 103
-2z m330 -416 c68 -31 106 -68 139 -136 l31 -61 0 -237 0 -237 -31 -61 c-41
-82 -132 -152 -199 -152 -18 0 -20 6 -20 65 0 80 -24 134 -73 164 -32 19 -49
21 -229 21 -186 0 -197 -1 -228 -23 -58 -39 -74 -70 -78 -153 -5 -86 -8 -87
-87 -50 -70 32 -130 101 -150 170 -13 46 -16 96 -13 278 3 202 5 227 24 268
25 53 82 112 131 135 61 29 120 34 433 32 286 -2 308 -4 350 -23z m-1030 -434
c0 -154 -1 -156 -61 -125 -89 47 -93 193 -6 245 65 40 67 36 67 -120z m1361
125 c65 -34 90 -135 49 -202 -20 -34 -66 -63 -100 -63 -19 0 -20 6 -20 140 0
134 1 140 20 140 12 0 34 -7 51 -15z m-555 -415 c42 -16 53 -39 54 -107 l0
-63 -215 0 -215 0 0 59 c0 65 23 106 63 114 47 9 287 6 313 -3z"/>
<path d="M542 800 c-48 -30 -72 -75 -72 -140 0 -65 24 -110 72 -140 45 -27
131 -27 176 0 48 30 72 75 72 140 0 65 -24 110 -72 140 -45 27 -131 27 -176 0z
m138 -90 c43 -43 11 -120 -50 -120 -59 0 -93 77 -53 122 22 24 77 24 103 -2z"/>
<path d="M1022 800 c-48 -30 -72 -75 -72 -140 0 -65 24 -110 72 -140 45 -27
131 -27 176 0 48 30 72 75 72 140 0 65 -24 110 -72 140 -45 27 -131 27 -176 0z
m138 -90 c43 -43 11 -120 -50 -120 -59 0 -93 77 -53 122 22 24 77 24 103 -2z"/>
</g>
</svg>
