<?xml version="1.0" encoding="UTF-8"?>
<svg xmlns="http://www.w3.org/2000/svg" xmlns:xlink="http://www.w3.org/1999/xlink" viewBox="0 0 64 64" width="64px" height="64px">
<g id="surface47593857">
<path style=" stroke:none;fill-rule:nonzero;fill:rgb(100%,100%,100%);fill-opacity:1;" d="M 39.949219 4.742188 C 37.441406 4.742188 35.40625 6.773438 35.40625 9.285156 C 35.40625 11.792969 37.441406 13.828125 39.949219 13.828125 L 43.75 13.828125 L 31.058594 26.515625 C 29.285156 28.289062 29.285156 31.167969 31.058594 32.941406 C 31.945312 33.828125 33.109375 34.273438 34.273438 34.273438 C 35.433594 34.273438 36.597656 33.828125 37.484375 32.941406 L 50.171875 20.25 L 50.171875 24.050781 C 50.171875 26.558594 52.207031 28.59375 54.714844 28.59375 C 57.226562 28.59375 59.257812 26.558594 59.257812 24.050781 L 59.257812 9.285156 C 59.257812 6.773438 57.226562 4.742188 54.714844 4.742188 Z M 17.234375 7.011719 C 11.597656 7.011719 7.011719 11.597656 7.011719 17.234375 L 7.011719 46.765625 C 7.011719 52.402344 11.597656 56.988281 17.234375 56.988281 L 46.765625 56.988281 C 52.402344 56.988281 56.988281 52.402344 56.988281 46.765625 L 56.988281 37.679688 C 56.988281 35.171875 54.953125 33.136719 52.445312 33.136719 C 49.9375 33.136719 47.902344 35.171875 47.902344 37.679688 L 47.902344 46.765625 C 47.902344 47.390625 47.390625 47.902344 46.765625 47.902344 L 17.234375 47.902344 C 16.609375 47.902344 16.097656 47.390625 16.097656 46.765625 L 16.097656 17.234375 C 16.097656 16.609375 16.609375 16.097656 17.234375 16.097656 L 26.320312 16.097656 C 28.832031 16.097656 30.863281 14.066406 30.863281 11.554688 C 30.863281 9.046875 28.832031 7.011719 26.320312 7.011719 Z M 17.234375 7.011719 "/>
</g>
</svg>
